# xmcd CD database file
#
# Track frame offsets:
#	150
#	23905
#	47387
#
# Disc length: 944 seconds
#
# Revision: 0
# Processed by: cddbd v1.5PL3 Copyright (c) Steve Scherf et al.
# Submitted via: CDex 1.51
#
DISCID=1803ae03
DTITLE=ASKA - 晴天を誉めるなら夕暮れを待て
DYEAR=1995
DGENRE=JPop
TTITLE0=晴天を誉めるなら夕暮れを待て
TTITLE1=オンリー ロンリー
TTITLE2=晴天を誉めるなら夕暮れを待て オリジナルカラオケ
EXTD=YEAR: 1995
EXTT0=
EXTT1=
EXTT2=
PLAYORDER=
